Patient4_TMGait_0pt4_02_left_42_GRF.mot
version=1
nRows=58
nColumns=19
inDegrees=no
endheader
time	F1x	F1y	F1z	M1x	M1y	M1z	F2x	F2y	F2z	M2x	M2y	M2z	EC1x	EC1y	EC1z	EC2x	EC2y	EC2z
55.96	0.81501	-11.1046	-0.72095	3.0394	-3.8308	-27.0273	-13.7849	749.8581	-56.3539	262.2935	69.5987	811.7827	-0.0592	0.0182	-0.0073	-0.0462	0.0165	0.9585
55.9734	0.72897	-6.9551	-0.4331	1.8275	-2.6454	-17.7074	-15.0671	750.0277	-57.1142	262.2895	69.457	812.8734	-0.0592	0.0182	-0.0073	-0.0462	0.0165	0.9585
55.9869	0.58145	-3.3934	-0.20108	0.78529	-1.6332	-9.715	-15.854	750.401	-57.6308	262.2667	68.9642	813.2655	-0.0592	0.0182	-0.0073	-0.0462	0.0165	0.9585
56.0003	0.38656	-0.62659	-0.037656	-0.025733	-0.86222	-3.5128	-16.0589	751.2018	-57.9075	262.2832	68.1731	813.1348	-0.0592	0.0182	-0.0073	-0.0462	0.0165	0.9585
56.0137	0.22257	1.3112	0.074982	-0.59716	-0.33045	0.82672	-15.6859	752.6321	-58.0143	262.4062	67.1883	812.7721	-0.0592	0.0182	-0.0073	-0.0462	0.0165	0.9585
56.0271	0.077352	2.526	0.14123	-0.95742	-0.0027604	3.5629	-14.7857	754.7997	-58.0624	262.6826	66.1363	812.4318	-0.0592	0.0182	-0.0073	-0.0462	0.0165	0.9585
56.0406	-0.054716	3.1508	0.17744	-1.1416	0.16128	5.0165	-13.4072	757.6987	-58.1377	263.1301	65.1031	812.2544	-0.0592	0.0182	-0.0073	-0.0462	0.0165	0.9585
56.054	-0.1644	3.3035	0.19336	-1.179	0.20869	5.4829	-11.6007	761.1779	-58.2936	263.7199	64.1307	812.214	-0.0592	0.0182	-0.0073	-0.0462	0.0165	0.9585
56.0674	-0.29654	3.0889	0.19455	-1.0902	0.16938	5.2627	-9.4243	764.8704	-58.5455	264.3461	63.2193	812.0434	-0.0592	0.0182	-0.0073	-0.0462	0.0165	0.9585
56.0809	-0.41608	2.5296	0.18762	-0.87811	0.084217	4.476	-6.9341	768.2031	-58.8813	264.8304	62.3439	811.236	-0.0592	0.0182	-0.0073	-0.0462	0.0165	0.9585
56.0943	-0.56486	1.6493	0.18135	-0.5425	-0.032893	3.2608	-4.2061	770.5425	-59.255	264.9721	61.4604	809.2175	-0.0592	0.0182	-0.0073	-0.0462	0.0165	0.9585
56.1077	-0.70494	0.42881	0.17518	-0.075854	-0.14829	1.6425	-1.2928	771.3335	-59.5956	264.6009	60.5041	805.4808	-0.0592	0.0182	-0.0073	-0.0462	0.0165	0.9585
56.1211	-0.81556	-1.1121	0.17252	0.51567	-0.24159	-0.31286	1.7392	770.2184	-59.8332	263.6113	59.4215	799.7371	-0.0592	0.0182	-0.0073	-0.0462	0.0165	0.9585
56.1346	-0.86071	-2.8802	0.15743	1.1956	-0.27465	-2.4799	4.846	767.0517	-59.9361	261.9677	58.1937	791.8968	-0.0592	0.0182	-0.0073	-0.0462	0.0165	0.9585
56.148	-0.74806	-4.6832	0.12642	1.8851	-0.20758	-4.6476	7.9619	761.973	-59.9305	259.7242	56.8631	782.169	-0.0592	0.0182	-0.0073	-0.0462	0.0165	0.9585
56.1614	-0.4168	-6.1126	0.058215	2.4275	0.0045764	-6.3251	11.0414	755.3988	-59.8781	257.0234	55.5025	771.0389	-0.0592	0.0182	-0.0073	-0.0462	0.0165	0.9585
56.1749	0.27657	-6.5363	-0.060226	2.5788	0.41914	-6.8074	14.0637	747.9521	-59.8502	254.0757	54.1874	759.1845	-0.0592	0.0182	-0.0073	-0.0462	0.0165	0.9585
56.1883	1.4261	-4.9837	-0.24618	1.9767	1.0855	-4.9814	16.9942	740.3547	-59.8938	251.1228	52.9751	747.3947	-0.0592	0.0182	-0.0073	-0.0462	0.0165	0.9585
56.2017	3.1354	-0.19448	-0.51782	0.14614	2.0529	0.59116	19.8315	733.2053	-60.0339	248.3634	51.8964	736.3166	-0.0592	0.0182	-0.0073	-0.0462	0.0165	0.9585
56.2151	5.4346	9.3185	-0.87274	-3.4806	3.3261	11.6299	22.5005	726.813	-60.2516	245.8902	50.9578	726.3317	-0.0592	0.0182	-0.0073	-0.0462	0.0165	0.9585
56.2286	8.1975	25.1177	-1.3006	-9.4994	4.8407	29.9602	24.8977	721.0018	-60.4966	243.6289	50.1461	717.3344	-0.0592	0.0182	-0.0073	-0.0462	0.0165	0.9585
56.242	11.126	48.4253	-1.7456	-18.3821	6.4114	57.0003	26.842	715.089	-60.6723	241.3295	49.4253	708.7415	-0.0592	0.0182	-0.0073	-0.0462	0.0165	0.9585
56.2554	13.5766	79.5978	-2.1193	-30.2672	7.6847	93.1899	28.1065	707.9262	-60.6517	238.5858	48.7474	699.5148	-0.0592	0.0182	-0.0073	-0.0462	0.0165	0.9585
56.2689	14.542	117.2262	-2.2599	-44.6234	8.0835	136.8978	28.4887	698.0889	-60.2748	234.9053	48.0301	688.3094	-0.0592	0.0182	-0.0073	-0.0462	0.0165	0.9585
56.2823	12.9116	157.4311	-1.8964	-59.967	6.8803	183.6756	27.8541	684.2949	-59.3901	229.8525	47.1768	673.897	-0.0592	0.0182	-0.0073	-0.0462	0.0165	0.9585
56.2957	8.8772	194.5222	-0.61636	-74.0908	3.6943	226.9771	26.295	665.8824	-57.9096	223.2178	46.0845	655.5521	-0.0592	0.0182	-0.0073	-0.0462	0.0165	0.9585
56.3091	3.7587	223.5896	1.7525	-85.1258	-1.0922	260.9946	24.0802	643.2459	-55.8936	215.1542	44.7312	633.5116	-0.0592	0.0182	-0.0073	-0.0462	0.0165	0.9585
56.3226	-1.3029	244.1969	4.6486	-92.9128	-6.4251	285.0621	21.6736	617.7059	-53.5746	206.1233	43.1924	608.8553	-0.0592	0.0182	-0.0073	-0.0462	0.0165	0.9585
56.336	-5.693	258.9878	7.7502	-98.4764	-11.6901	302.1711	19.5855	590.8285	-51.2437	196.671	41.5762	582.896	-0.0592	0.0182	-0.0073	-0.0462	0.0165	0.9585
56.3494	-9.205	271.4201	10.676	-103.1562	-16.3925	316.3003	18.183	563.7972	-49.0303	187.2197	39.8824	556.6381	-0.0592	0.0182	-0.0073	-0.0462	0.0165	0.9585
56.3629	-11.9054	284.4113	13.3865	-108.071	-20.4921	330.7916	17.6608	537.0801	-46.858	177.9564	37.9822	530.4497	-0.0592	0.0182	-0.0073	-0.0462	0.0165	0.9585
56.3763	-13.9201	299.7942	15.7435	-113.9277	-23.8973	347.6861	17.9711	510.52	-44.5123	168.8504	35.6896	504.19	-0.0592	0.0182	-0.0073	-0.0462	0.0165	0.9585
56.3897	-15.3734	318.5092	17.8297	-121.0754	-26.7399	368.0273	18.9479	483.4091	-41.8113	159.6767	32.885	477.2043	-0.0592	0.0182	-0.0073	-0.0462	0.0165	0.9585
56.4031	-16.291	341.0346	19.7419	-129.6722	-29.1513	392.3015	20.2767	454.7705	-38.6758	150.1019	29.5844	448.611	-0.0592	0.0182	-0.0073	-0.0462	0.0165	0.9585
56.4166	-16.6441	367.5145	21.7674	-139.7354	-31.4341	420.6407	21.5815	423.604	-35.168	139.7687	25.9503	417.5089	-0.0592	0.0182	-0.0073	-0.0462	0.0165	0.9585
56.43	-16.4339	397.7108	24.2117	-151.142	-33.9254	452.7252	22.4864	389.1381	-31.4169	128.3934	22.2098	383.1982	-0.0592	0.0182	-0.0073	-0.0462	0.0165	0.9585
56.4434	-15.8132	431.1729	27.4257	-163.6913	-37.0589	488.0177	22.5971	351.1048	-27.5743	115.8608	18.6199	345.4868	-0.0592	0.0182	-0.0073	-0.0462	0.0165	0.9585
56.4569	-14.9982	467.5967	31.5715	-177.2523	-41.0875	526.1704	21.6546	309.8664	-23.758	102.2728	15.3743	304.7504	-0.0592	0.0182	-0.0073	-0.0462	0.0165	0.9585
56.4703	-14.141	506.9701	36.5866	-191.8221	-45.9972	567.1736	19.5249	266.4859	-20.066	87.97	12.6119	262.0509	-0.0592	0.0182	-0.0073	-0.0462	0.0165	0.9585
56.4837	-13.3566	549.2764	42.1892	-207.4016	-51.5206	611.0196	16.301	222.5447	-16.5647	73.474	10.3748	218.9154	-0.0592	0.0182	-0.0073	-0.0462	0.0165	0.9585
56.4971	-12.7174	594.0024	48.0777	-223.8005	-57.3502	657.164	12.2883	179.9238	-13.3103	59.4067	8.6262	177.1472	-0.0592	0.0182	-0.0073	-0.0462	0.0165	0.9585
56.5106	-12.3039	639.9381	54.0214	-240.5548	-63.2559	704.334	7.9512	140.4592	-10.3607	46.3753	7.272	138.5064	-0.0592	0.0182	-0.0073	-0.0462	0.0165	0.9585
56.524	-12.1687	685.2405	59.8676	-256.9579	-69.0846	750.575	3.8121	105.5411	-7.7769	34.8437	6.1961	104.3016	-0.0592	0.0182	-0.0073	-0.0462	0.0165	0.9585
56.5374	-12.2954	727.708	65.4966	-272.1718	-74.7013	793.5525	0.26469	75.9545	-5.5838	25.0728	5.2861	75.2896	-0.0592	0.0182	-0.0073	-0.0462	0.0165	0.9585
56.5509	-12.5785	765.1219	70.7416	-285.3732	-79.8937	830.9019	-2.391	51.8643	-3.7877	17.1183	4.4481	51.6156	-0.0592	0.0182	-0.0073	-0.0462	0.0165	0.9585
56.5643	-12.8384	795.6279	75.3987	-295.8951	-84.3857	860.6259	-4.037	33.0089	-2.3733	10.8929	3.6279	33.0387	-0.0592	0.0182	-0.0073	-0.0462	0.0165	0.9585
56.5777	-12.8701	817.9309	79.2318	-303.2994	-87.8599	881.3222	-4.686	18.8817	-1.3176	6.2292	2.8145	19.0831	-0.0592	0.0182	-0.0073	-0.0462	0.0165	0.9585
56.5911	-12.5	831.361	82.0813	-307.3924	-90.0935	892.2845	-4.4749	8.8977	-0.58852	2.9334	2.0328	9.1878	-0.0592	0.0182	-0.0073	-0.0462	0.0165	0.9585
56.6046	-11.6273	835.8862	83.8561	-308.2235	-90.9685	893.505	-3.7562	2.4613	-0.13516	0.80697	1.3496	2.7841	-0.0592	0.0182	-0.0073	-0.0462	0.0165	0.9585
56.618	-10.2024	832.1399	84.5597	-306.082	-90.4915	885.7037	-2.8568	-1.1713	0.10878	-0.39392	0.81009	-0.8501	-0.0592	0.0182	-0.0073	-0.0462	0.0165	0.9585
56.6314	-8.2305	821.393	84.2302	-301.4859	-88.7235	870.2901	-1.9966	-2.7753	0.20742	-0.92593	0.42508	-2.4616	-0.0592	0.0182	-0.0073	-0.0462	0.0165	0.9585
56.6449	-5.7516	805.4644	82.992	-295.1381	-85.8223	849.2556	-1.264	-3.0559	0.21306	-1.0213	0.17719	-2.755	-0.0592	0.0182	-0.0073	-0.0462	0.0165	0.9585
56.6583	-2.8521	786.5229	81.0007	-287.8494	-81.9948	824.9505	-0.71147	-2.5731	0.17132	-0.86405	0.040258	-2.2803	-0.0592	0.0182	-0.0073	-0.0462	0.0165	0.9585
56.6717	0.34042	766.8073	78.4923	-280.4348	-77.5437	799.793	-0.34048	-1.7479	0.10946	-0.59202	-0.01105	-1.4555	-0.0592	0.0182	-0.0073	-0.0462	0.0165	0.9585
56.6851	3.6767	748.4095	75.6871	-273.6404	-72.7615	776.0278	-0.11276	-0.84213	0.047922	-0.29207	-0.0074858	-0.54003	-0.0592	0.0182	-0.0073	-0.0462	0.0165	0.9585
56.6986	7.0082	733.0948	72.8293	-268.0811	-67.9504	755.5343	-0.00019753	-0.0029511	-0.0079941	-0.013674	0.033995	0.31742	-0.0592	0.0182	-0.0073	-0.0462	0.0165	0.9585
56.712	10.1937	722.1519	70.0912	-264.189	-63.3381	739.6789	0.031909	0.68418	-0.048063	0.21717	0.089925	1.0133	-0.0592	0.0182	-0.0073	-0.0462	0.0165	0.9585
56.7254	13.1071	716.2463	67.6283	-262.1646	-59.1257	729.1692	0.0026396	1.1998	-0.081068	0.3922	0.16065	1.5256	-0.0592	0.0182	-0.0073	-0.0462	0.0165	0.9585
